<?xml version="1.0" encoding="UTF-8" standalone="no"?>
<!-- Created with Inkscape (http://www.inkscape.org/) -->

<svg
   xmlns:dc="http://purl.org/dc/elements/1.1/"
   xmlns:cc="http://creativecommons.org/ns#"
   xmlns:rdf="http://www.w3.org/1999/02/22-rdf-syntax-ns#"
   xmlns:svg="http://www.w3.org/2000/svg"
   xmlns="http://www.w3.org/2000/svg"
   xmlns:sodipodi="http://sodipodi.sourceforge.net/DTD/sodipodi-0.dtd"
   xmlns:inkscape="http://www.inkscape.org/namespaces/inkscape"
   width="512"
   height="512"
   viewBox="0 0 135.46666 135.46666"
   version="1.1"
   id="svg8"
   inkscape:version="0.92.4 (5da689c313, 2019-01-14)"
   sodipodi:docname="word-penne-mini.svg"
   inkscape:export-filename="C:\Users\kbaba\Documents\word-penne\word-penne-mini.png"
   inkscape:export-xdpi="96"
   inkscape:export-ydpi="96">
  <defs
     id="defs2" />
  <sodipodi:namedview
     id="base"
     pagecolor="#ffffff"
     bordercolor="#666666"
     borderopacity="1.0"
     inkscape:pageopacity="0.0"
     inkscape:pageshadow="2"
     inkscape:zoom="0.90509668"
     inkscape:cx="440.62702"
     inkscape:cy="322.87492"
     inkscape:document-units="mm"
     inkscape:current-layer="layer1"
     showgrid="false"
     units="px"
     inkscape:window-width="1920"
     inkscape:window-height="1027"
     inkscape:window-x="-8"
     inkscape:window-y="1072"
     inkscape:window-maximized="1" />
  <metadata
     id="metadata5">
    <rdf:RDF>
      <cc:Work
         rdf:about="">
        <dc:format>image/svg+xml</dc:format>
        <dc:type
           rdf:resource="http://purl.org/dc/dcmitype/StillImage" />
        <dc:title></dc:title>
      </cc:Work>
    </rdf:RDF>
  </metadata>
  <g
     inkscape:label="レイヤー 1"
     inkscape:groupmode="layer"
     id="layer1"
     transform="translate(0,-161.53336)">
    <path
       style="fill:#a1bdc3;fill-opacity:1;stroke:#6b97a0;stroke-width:2.39472699;stroke-linejoin:round;stroke-miterlimit:4;stroke-dasharray:none;stroke-opacity:1"
       d="m 71.498321,195.89443 h 4.929821 l -0.245805,-29.73534 -4.684016,0.0957 z"
       id="path908"
       inkscape:connector-curvature="0" />
    <path
       style="fill:#a1bdc3;fill-opacity:1;stroke:#6b97a0;stroke-width:2.39472699;stroke-linejoin:round;stroke-miterlimit:4;stroke-dasharray:none;stroke-opacity:1"
       d="m 56.918481,195.89443 h 7.176066 l -0.97363,-29.63958 h -5.226686 z"
       id="path906"
       inkscape:connector-curvature="0" />
    <path
       style="fill:#a1bdc3;fill-opacity:1;stroke:#6b97a0;stroke-width:2.39472699;stroke-linejoin:round;stroke-miterlimit:4;stroke-dasharray:none;stroke-opacity:1"
       d="m 44.768971,195.89443 h 4.747863 v -29.63958 l -4.105172,0.0957 z"
       id="rect851"
       inkscape:connector-curvature="0" />
    <g
       id="g1475"
       transform="matrix(1.1151988,0,0,1.8248684,-7.8027937,-128.25691)">
      <path
         sodipodi:nodetypes="cczccczccccc"
         inkscape:connector-curvature="0"
         id="path825-6"
         d="m 123.92077,177.03294 c -0.26745,-0.0188 -0.55027,-0.0212 -0.8472,-0.008 0,0 -30.126048,-5.06808 -45.707978,-6.37239 -15.581931,-1.30432 -47.699429,-1.38879 -47.699429,-1.38879 l -18.805532,14.98421 0.95521,0.86016 c 0,0 36.057412,0.49204 51.83661,1.80313 15.779199,1.31108 42.838579,6.0634 42.838579,6.0634 5.61987,0.97649 14.14431,-4.51362 16.77293,-7.15014 1.92045,-2.83668 5.99936,-8.35789 1.42772,-8.66512 -0.23861,-0.06 -0.496,-0.10232 -0.77091,-0.12706 z"
         style="fill:#f4ff46;fill-opacity:1;stroke:#beca00;stroke-width:1.57922566;stroke-miterlimit:4;stroke-dasharray:none;stroke-opacity:1" />
      <ellipse
         transform="matrix(0.99656582,0.08280437,-0.69543775,0.71858635,0,0)"
         ry="11.394953"
         rx="7.2929101"
         cy="225.89508"
         cx="177.43646"
         id="path825"
         style="fill:#edf1b9;fill-opacity:1;stroke:#beca00;stroke-width:1.79538155;stroke-miterlimit:4;stroke-dasharray:none;stroke-opacity:1" />
      <path
         inkscape:connector-curvature="0"
         id="path916"
         d="m 30.722739,171.85641 27.509804,0.67717"
         style="fill:none;stroke:#beca00;stroke-width:1.19688809;stroke-linecap:round;stroke-linejoin:miter;stroke-miterlimit:4;stroke-dasharray:none;stroke-opacity:1" />
      <path
         inkscape:connector-curvature="0"
         id="path916-2"
         d="m 29.723288,174.58164 23.456549,0.72865"
         style="fill:none;stroke:#beca00;stroke-width:1.14642513;stroke-linecap:round;stroke-linejoin:miter;stroke-miterlimit:4;stroke-dasharray:none;stroke-opacity:1" />
      <path
         inkscape:connector-curvature="0"
         id="path916-2-6"
         d="m 28.143865,176.83282 18.997296,0.79717"
         style="fill:none;stroke:#beca00;stroke-width:1.07913589;stroke-linecap:round;stroke-linejoin:miter;stroke-miterlimit:4;stroke-dasharray:none;stroke-opacity:1" />
      <path
         sodipodi:nodetypes="cc"
         inkscape:connector-curvature="0"
         id="path916-3"
         d="m 83.452714,186.91165 c 5.257056,-0.025 28.417096,4.89554 27.916416,5.14589"
         style="fill:none;stroke:#beca00;stroke-width:1.19688809;stroke-linecap:round;stroke-linejoin:miter;stroke-miterlimit:4;stroke-dasharray:none;stroke-opacity:1" />
      <path
         sodipodi:nodetypes="cc"
         inkscape:connector-curvature="0"
         id="path916-3-0"
         d="m 91.200523,185.61279 c 5.257057,-0.0249 24.526617,5.01525 24.025947,5.2656"
         style="fill:none;stroke:#beca00;stroke-width:1.19688809;stroke-linecap:round;stroke-linejoin:miter;stroke-miterlimit:4;stroke-dasharray:none;stroke-opacity:1" />
      <path
         sodipodi:nodetypes="cc"
         inkscape:connector-curvature="0"
         id="path916-3-1"
         d="m 98.023816,184.35586 c 8.721744,1.0493 21.756844,5.79328 19.596804,5.3853"
         style="fill:none;stroke:#beca00;stroke-width:1.19688809;stroke-linecap:round;stroke-linejoin:miter;stroke-miterlimit:4;stroke-dasharray:none;stroke-opacity:1" />
      <path
         inkscape:connector-curvature="0"
         id="path1001"
         d="m 80.837849,185.89096 c 0.193468,1.04629 0.327115,2.10543 0.580401,3.13889 0.01497,0.0611 0.144386,-0.0444 0.188913,0 0.04452,0.0444 -0.04453,0.14437 0,0.1889 0.08905,0.0891 0.265179,-0.0563 0.377826,0 0.07965,0.0398 0.109258,0.14909 0.188911,0.18892 0.112653,0.0563 0.288772,-0.0891 0.377826,0 0.04453,0.0444 -0.04452,0.14438 0,0.18891 0.04453,0.0444 0.132588,-0.0282 0.18891,0 0.07965,0.0398 0.125939,0.12589 0.188914,0.18891 0.06297,0.063 0.149087,0.1092 0.188913,0.18891 0.02815,0.0563 -0.04452,0.14439 0,0.18892 0.04453,0.0444 0.144386,-0.0444 0.188915,0 0.04452,0.0444 -0.02817,0.13258 0,0.18891 0.03983,0.0796 0.149083,0.1092 0.188909,0.18891 0.02814,0.0563 -0.04453,0.14438 0,0.18892 0.04452,0.0444 0.144386,-0.0445 0.188912,0 0.08905,0.0891 -0.05632,0.26517 0,0.37782 0.03983,0.0796 0.14909,0.1092 0.188915,0.18891 0.05632,0.1127 -0.05632,0.26518 0,0.37783 0.03983,0.0796 0.149084,0.1092 0.188909,0.18891 0.05125,0.10253 -0.05169,0.70396 0,0.75565 0.04452,0.0444 0.144387,-0.0446 0.188913,0 0.04546,0.0455 -0.04546,0.71019 0,0.75565 0.04453,0.0444 0.144389,-0.0444 0.188916,0 0.03865,0.0387 -0.03748,0.49184 0,0.56674 0.0398,0.0797 0.149087,0.1092 0.188908,0.18891 0.03748,0.075 -0.03865,0.52811 0,0.56674 0.04459,0.0444 0.144383,-0.0445 0.188909,0 0.04549,0.0455 -0.04549,0.71019 0,0.75564 0.04459,0.0445 0.144396,-0.0444 0.188921,0 0.03865,0.0387 -0.03748,0.49184 0,0.56674 0.0398,0.0796 0.149088,0.1092 0.188909,0.18891 0.05636,0.1127 -0.08905,0.28878 0,0.37783 0.04446,0.0444 0.144382,-0.0444 0.188908,0 0.04459,0.0444 -0.04446,0.14438 0,0.18891 0.04459,0.0444 0.144396,-0.0444 0.188922,0 0.08905,0.0891 -0.08905,0.28878 0,0.37783 0.04459,0.0444 0.132582,-0.0282 0.188909,0 0.07962,0.0398 0.109213,0.14908 0.188907,0.18891 0.05636,0.0282 0.144384,-0.0444 0.188922,0 0.04459,0.0444 -0.04446,0.14438 0,0.18892 0.04459,0.0444 0.125887,0 0.188909,0 0.440799,0 0.881586,0 1.322385,0 0.503769,0 -0.06294,0.063 0.188909,-0.18892 0.08905,-0.0891 0.288778,0.0891 0.377829,0 0.08905,-0.0891 -0.08905,-0.28877 0,-0.37783 0.04446,-0.0444 0.144384,0.0445 0.188909,0 0.04459,-0.0444 -0.02817,-0.13259 0,-0.18891 0.0398,-0.0797 0.149088,-0.1092 0.188922,-0.18891 0.02817,-0.0563 -0.04446,-0.14439 0,-0.18891 0.04459,-0.0445 0.144382,0.0444 0.188908,0 0.04446,-0.0445 -0.02817,-0.1326 0,-0.18892 0.0398,-0.0796 0.149088,-0.1092 0.188909,-0.18891 0.02817,-0.0563 -0.02817,-0.1326 0,-0.18891 0.0398,-0.0797 0.149087,-0.1092 0.188921,-0.18892 0.02817,-0.0563 -0.04446,-0.14439 0,-0.18891 0.04459,-0.0444 0.144382,0.0445 0.188909,0 0.126017,-0.12601 -0.126017,-0.2518 0,-0.37783 0.04446,-0.0444 0.144382,0.0445 0.188908,0 0,-0.50376 -0.06294,0.063 0.188909,-0.1889 0.04459,-0.0444 -0.04446,-0.14439 0,-0.18891 0.04459,-0.0445 0.144396,0.0444 0.188921,0 0.04459,-0.0445 -0.02817,-0.1326 0,-0.18891 0.0398,-0.0797 0.149087,-0.1092 0.188908,-0.18892 0.02817,-0.0563 -0.04459,-0.14439 0,-0.18891 0.04446,-0.0444 0.144383,0.0444 0.188909,0 0.04459,-0.0444 -0.04446,-0.14439 0,-0.18891 0.04459,-0.0444 0.144383,0.0444 0.188921,0 0.04459,-0.0444 -0.02817,-0.1326 0,-0.18892 0.03981,-0.0796 0.149075,-0.1092 0.188909,-0.18891 0.02817,-0.0563 -0.04459,-0.14439 0,-0.18891 0.503769,0 -0.06294,0.063 0.188908,-0.18892 0.04459,-0.0445 0.144384,0.0445 0.188909,0 0.04459,-0.0445 -0.04446,-0.14439 0,-0.18891 0.04459,-0.0444 0.144396,0.0444 0.188922,0 0.04446,-0.0444 -0.04459,-0.14439 0,-0.18891 0.04446,-0.0444 0.144382,0.0444 0.188909,0 0.04446,-0.0444 -0.04459,-0.14439 0,-0.18891 0.08905,-0.0891 0.288764,0.0891 0.377829,0 0.04459,-0.0446 -0.04446,-0.1444 0,-0.18892 0.08905,-0.0891 0.288765,0.0891 0.377817,0 0.04459,-0.0444 -0.04446,-0.14438 0,-0.18891 0.01887,-0.0189 0.547855,-0.0189 0.566739,0 0.04459,0.0445 -0.04446,0.14438 0,0.18891 0.04459,0.0444 0.144382,-0.0444 0.188908,0 0.04459,0.0444 -0.04446,0.14438 0,0.18892 0.08905,0.0891 0.288778,-0.0891 0.37783,0 0.04446,0.0444 -0.04459,0.14438 0,0.18891 0.04446,0.0444 0.144382,-0.0444 0.188908,0 0.04459,0.0444 -0.02817,0.13258 0,0.18891 0.0398,0.0797 0.149088,0.1092 0.188922,0.18891 0.02817,0.0563 -0.04446,0.14439 0,0.18892 0.04459,0.0444 0.144383,-0.0444 0.188908,0 0.04446,0.0444 -0.02817,0.13258 0,0.18891 0.03981,0.0796 0.149088,0.1092 0.188909,0.18891 0.02817,0.0563 -0.02817,0.1326 0,0.18892 0.0398,0.0797 0.149088,0.1092 0.188922,0.18891 0.02817,0.0563 -0.02817,0.1326 0,0.18891 0.0398,0.0796 0.149087,0.1092 0.188908,0.18892 0.02817,0.0563 -0.02817,0.13257 0,0.18891 0.0398,0.0797 0.149087,0.1092 0.188909,0.18891 0.03748,0.075 -0.03865,0.52811 0,0.56673 0.04459,0.0445 0.144382,-0.0444 0.188907,0 0.0517,0.0516 -0.05118,0.65317 0,0.75565 0.03982,0.0796 0.149089,0.1092 0.188922,0.18892 0.05958,0.11917 -0.05958,0.82538 0,0.94456 0.0398,0.0797 0.149088,0.1092 0.188909,0.18892 0.05932,0.11878 -0.05932,0.6369 0,0.75565 0.0398,0.0797 0.149087,0.1092 0.188909,0.1889 0.05932,0.11878 -0.05932,0.63693 0,0.75565 0.0398,0.0796 0.149087,0.1092 0.188921,0.18892 0.06127,0.12253 -0.05932,0.95549 0,1.13347 0.04446,0.13357 0.154761,0.24122 0.188908,0.37783 0.03477,0.13921 -0.05531,0.83388 0,0.94455 0.0398,0.0796 0.149087,0.1092 0.188909,0.18892 0.02817,0.0563 0,0.12589 0,0.18891 0,0.063 0,0.12589 0,0.18891 0,0.19984 -0.03244,1.22507 0,1.32239 0.02817,0.0845 0.149087,0.1092 0.188922,0.18892 0.03412,0.0683 0,0.81316 0,0.94455 0,0.063 -0.04446,0.14438 0,0.18891 0.04459,0.0445 0.144382,-0.0446 0.188907,0 0.06631,0.0663 -0.06526,0.81408 0,0.94457 0.0398,0.0796 0.149089,0.1092 0.188909,0.18891 0.07561,0.15113 -0.07561,0.4156 0,0.56674 0.0398,0.0796 0.149087,0.1092 0.188909,0.1889 0.05636,0.11271 -0.08905,0.28878 0,0.37783 0.04446,0.0446 0.144395,-0.0444 0.188922,0 0.08905,0.0891 -0.08905,0.28878 0,0.37783 0.04446,0.0444 0.144382,-0.0446 0.188908,0 0.04459,0.0444 -0.04446,0.14438 0,0.18891 0.04459,0.0446 0.144383,-0.0444 0.188921,0 0.04459,0.0446 -0.04446,0.14438 0,0.18891 0.08905,0.0891 0.265178,-0.0563 0.377818,0 0.07962,0.0398 0.109213,0.14908 0.188908,0.18892 0.05751,0.0287 0.481667,0 0.566738,0 0.08504,0 0.509249,0.0287 0.566739,0 0.07962,-0.0398 0.109213,-0.14908 0.188922,-0.18892 0.112703,-0.0563 0.265176,0.0563 0.377816,0 0.07962,-0.0398 0.109213,-0.14908 0.188908,-0.18891 0.112705,-0.0563 0.288779,0.0891 0.377829,0 0.0445,-0.0444 -0.0446,-0.14438 0,-0.18891 0.0445,-0.0446 0.13259,0.0282 0.18891,0 0.62655,-0.62654 -0.1781,0.0891 0.37783,-0.18891 0.22669,-0.11335 0.34003,-0.45339 0.56674,-0.56675 0.0563,-0.0282 0.14438,0.0445 0.18891,0 0.0891,-0.0891 -0.0563,-0.26517 0,-0.37781 0.0797,-0.15931 0.29818,-0.21853 0.37783,-0.37783 0.0563,-0.11258 -0.0891,-0.28877 0,-0.37782 0.0444,-0.0444 0.14438,0.0444 0.18891,0 0.0944,-0.0944 -0.0945,-0.47228 0,-0.56674 0.0444,-0.0444 0.14438,0.0444 0.18891,0 0.0585,-0.0585 -0.0586,-0.88607 0,-0.94457 0.0446,-0.0444 0.14438,0.0444 0.18892,0 0.009,-0.009 0,-0.85549 0,-0.94455 0,-0.12589 -0.0398,-0.25835 0,-0.37783 0.0446,-0.13358 0.14438,-0.24424 0.18891,-0.37782 0.0397,-0.11891 0,-0.77428 0,-0.94457 0,-0.063 -0.0446,-0.14439 0,-0.18891 0.0444,-0.0444 0.14438,0.0444 0.18891,0 0.0446,-0.0444 0,-0.12589 0,-0.18892 0,-0.31484 0,-0.62971 0,-0.94455 0,-0.063 -0.0444,-0.14439 0,-0.18891 0.0446,-0.0446 0.14437,0.0444 0.18891,0 0.0455,-0.0456 -0.0456,-0.71019 0,-0.75565 0.0445,-0.0446 0.14439,0.0444 0.18892,0 0.0454,-0.0454 -0.0455,-0.7102 0,-0.75566 0.0444,-0.0444 0.14437,0.0445 0.1889,0 0.009,-0.009 0,-0.85549 0,-0.94455 0,-0.063 0,-0.12589 0,-0.18891 0,-0.063 -0.0282,-0.1326 0,-0.18892 0.0398,-0.0796 0.14909,-0.1092 0.18891,-0.18891 0.0513,-0.10254 -0.0517,-0.70396 0,-0.75565 0.0445,-0.0445 0.14439,0.0444 0.18892,0 0.0444,-0.0445 0,-0.12601 0,-0.18892 0,-0.31484 0,-0.62971 0,-0.94456 0,-0.50377 -0.063,0.063 0.18891,-0.18892 0.008,-0.008 0,-0.68627 0,-0.75564 0,-0.0694 -0.008,-0.74805 0,-0.75565 0.0444,-0.0444 0.14438,0.0444 0.18891,0 0.0585,-0.0585 -0.0586,-0.88606 0,-0.94456 0.0445,-0.0446 0.14438,0.0444 0.18892,0 0.0945,-0.0944 -0.0944,-0.47228 0,-0.56673 0.0446,-0.0446 0.14438,0.0444 0.18891,0 0.0444,-0.0446 -0.0445,-0.1444 0,-0.18892 0.0444,-0.0444 0.14438,0.0444 0.18891,0 0.0445,-0.0444 -0.0444,-0.14439 0,-0.18891 0.0891,-0.0891 0.26517,0.0563 0.37783,0 0.0797,-0.0398 0.1092,-0.1491 0.18891,-0.18891 0.075,-0.0374 0.52811,0.0387 0.56674,0 0.0444,-0.0445 -0.0446,-0.14439 0,-0.18892 0.0663,-0.0663 0.81407,0.0653 0.94456,0 0.0797,-0.0398 0.1092,-0.1491 0.18891,-0.18891 0.10253,-0.0512 0.70396,0.0516 0.75565,0 0.0444,-0.0444 -0.0446,-0.14439 0,-0.18891 0.0944,-0.0944 0.47228,0.0944 0.56674,0 0.0444,-0.0446 -0.0446,-0.14439 0,-0.18891 0.0444,-0.0445 0.1326,0.0282 0.18891,0 0.0797,-0.0398 0.1092,-0.14909 0.18892,-0.18892 0.0563,-0.0282 0.14438,0.0445 0.18891,0 0.0444,-0.0444 -0.0446,-0.14439 0,-0.18891 0.0444,-0.0446 0.13257,0.0282 0.18891,0 0.1593,-0.0797 0.21851,-0.29818 0.37783,-0.37783 0.0563,-0.0282 0.14437,0.0445 0.1889,0 0.0446,-0.0444 -0.0446,-0.14439 0,-0.18891 0.0446,-0.0444 0.14438,0.0444 0.18891,0 0.0446,-0.0444 -0.0444,-0.14439 0,-0.18891 0.0446,-0.0444 0.14439,0.0444 0.18892,0 0.0444,-0.0444 -0.0282,-0.13259 0,-0.18891 0.0398,-0.0797 0.14909,-0.1092 0.18891,-0.18892 0.0282,-0.0563 -0.0446,-0.14438 0,-0.1889 0.0444,-0.0444 0.14438,0.0444 0.18891,0 0.0446,-0.0444 -0.0282,-0.1326 0,-0.18891 0.10076,-0.20164 0.27701,-0.17619 0.37783,-0.37783 0.0282,-0.0563 -0.0446,-0.14439 0,-0.18891 0.0444,-0.0445 0.14438,0.0444 0.18891,0 0.0446,-0.0445 -0.0444,-0.1444 0,-0.18892 0.0446,-0.0444 0.14438,0.0444 0.18891,0 0.0444,-0.0444 -0.0446,-0.14439 0,-0.18891 0.0444,-0.0444 0.14439,0.0445 0.18892,0 0.0444,-0.0444 -0.0446,-0.14439 0,-0.18891 0.0444,-0.0446 0.14438,0.0444 0.18891,0 0.0891,-0.0891 -0.0891,-0.28878 0,-0.37783 0.0446,-0.0444 0.1326,0.0282 0.18891,0 0.78621,-0.39311 -0.20195,0.0131 0.18892,-0.37783 0.0444,-0.0444 0.14438,0.0445 0.18891,0 0.0444,-0.0444 -0.0446,-0.14439 0,-0.18891 0.0444,-0.0444 0.14437,0.0445 0.1889,0 0.0446,-0.0444 -0.0444,-0.14439 0,-0.18891 0.0446,-0.0445 0.14438,0.0444 0.18893,0 0.0446,-0.0445 -0.0444,-0.14438 0,-0.18891 0.0446,-0.0445 0.14437,0.0444 0.1889,0 0.0891,-0.0891 -0.0891,-0.28877 0,-0.37782 0.50377,0 -0.063,0.063 0.18891,-0.18891 0.0445,-0.0444 0.14438,0.0444 0.18891,0 0.0944,-0.0944 -0.0944,-0.47229 0,-0.56674 0.0444,-0.0444 0.14438,0.0444 0.18892,0 0.0585,-0.0585 -0.0585,-0.88607 0,-0.94457 0.0444,-0.0444 0.14438,0.0444 0.18891,0 0.0446,-0.0444 0,-0.12589 0,-0.18891 0,-0.0891 0.009,-0.936 0,-0.94457 -0.50376,0 0.063,0.063 -0.18891,-0.1889 -0.0585,-0.0585 -0.88607,0.0585 -0.94457,0 -0.0444,-0.0444 0.0446,-0.14439 0,-0.18891 -0.0444,-0.0446 -0.12588,0 -0.1889,0 -0.37783,0 -0.75565,0 -1.13348,0 -0.063,0 -0.12589,0 -0.18891,0 -0.063,0 -0.14439,-0.0446 -0.18891,0 -0.0444,0.0444 0.0446,0.14437 0,0.18891 -0.0585,0.0585 -0.88607,-0.0585 -0.94457,0 -0.0446,0.0445 0.0446,0.14437 0,0.1889 -0.0517,0.0517 -0.65316,-0.0512 -0.75564,0 -0.0797,0.0398 -0.1092,0.14909 -0.18891,0.18892 -0.1127,0.0563 -0.28878,-0.0891 -0.37783,0 -0.0446,0.0444 0.0444,0.14438 0,0.18891 -0.0944,0.0944 -0.47229,-0.0944 -0.56674,0 -0.0446,0.0445 0.0444,0.14438 0,0.18891 -0.0454,0.0455 -0.71019,-0.0455 -0.75565,0 -0.0446,0.0444 0.0444,0.14439 0,0.18892 -0.0387,0.0387 -0.49183,-0.0374 -0.56674,0 -0.0797,0.0398 -0.1092,0.14907 -0.1889,0.18891 -0.11258,0.0563 -0.2652,-0.0563 -0.37783,0 -0.0797,0.0398 -0.1092,0.14908 -0.18891,0.18891 -0.15113,0.0756 -0.41561,-0.0757 -0.56674,0 -0.0797,0.0398 -0.1092,0.14908 -0.18892,0.18892 -0.0563,0.0282 -0.13259,-0.0282 -0.18891,0 -0.0797,0.0398 -0.1092,0.14908 -0.18891,0.18891 -0.1127,0.0563 -0.26518,-0.0563 -0.37783,0 -0.0797,0.0398 -0.10921,0.14908 -0.18891,0.18891 -0.1127,0.0563 -0.26518,-0.0563 -0.37783,0 -0.0797,0.0398 -0.10921,0.14908 -0.18891,0.18891 -0.15113,0.0756 -0.4156,-0.0757 -0.56673,0 -0.0797,0.0398 -0.10921,0.14908 -0.18891,0.18892 -0.11478,0.0574 -1.01877,-0.0574 -1.13348,0 -0.0797,0.0398 -0.10921,0.14908 -0.18891,0.18891 -0.0489,0.0244 -0.99958,0 -1.13348,0 -0.0629,0 -0.144381,-0.0444 -0.188907,0 -0.04446,0.0444 0.04459,0.14438 0,0.18891 -0.04446,0.0445 -0.125888,0 -0.188922,0 -0.131392,0 -0.876234,-0.0341 -0.944555,0 -0.07962,0.0398 -0.109213,0.14908 -0.188909,0.18892 -0.06838,0.0341 -0.813175,0 -0.944567,0 -0.06294,0 -0.144383,-0.0444 -0.188909,0 -0.04459,0.0444 0.04446,0.14437 0,0.18891 -0.04459,0.0444 -0.125887,0 -0.188909,0 -0.06294,0 -0.125887,0 -0.188921,0 -0.818617,0 -1.637233,0 -2.455862,0 -0.377817,0 -0.755648,0 -1.133478,0 -0.06294,0 -0.144382,0.0444 -0.188908,0 -0.04459,-0.0446 0.04446,-0.14439 0,-0.18891 -0.04459,-0.0444 -0.125887,0 -0.188909,0 -0.131406,0 -0.876248,0.0341 -0.944568,0 -0.07962,-0.0398 -0.109213,-0.1491 -0.188908,-0.18892 -0.05636,-0.0282 -0.125888,0 -0.188909,0 -0.06294,0 -0.125887,0 -0.188922,0 -0.314846,0 -0.629708,0 -0.944555,0 -0.06294,0 -0.132595,0.0282 -0.188909,0 -0.07962,-0.0398 -0.109213,-0.14909 -0.188921,-0.18891 -0.151129,-0.0757 -0.415609,0.0756 -0.566738,0 -0.07962,-0.0398 -0.109213,-0.1491 -0.188909,-0.18891 -0.112703,-0.0563 -0.265178,0.0563 -0.377817,0 -0.07962,-0.0398 -0.109213,-0.14909 -0.188921,-0.18892 -0.112575,-0.0563 -0.265178,0.0563 -0.377817,0 -0.07962,-0.0398 -0.109213,-0.14908 -0.188922,-0.18891 -0.07496,-0.0374 -0.528119,0.0387 -0.566738,0 -0.04446,-0.0444 0.04459,-0.14439 0,-0.18891 -0.03865,-0.0387 -0.491827,0.0374 -0.566726,0 -0.07962,-0.0398 -0.109214,-0.14909 -0.188921,-0.18891 -0.07496,-0.0374 -0.52812,0.0387 -0.566738,0 -0.04446,-0.0446 0.04459,-0.1444 0,-0.18892 -0.04549,-0.0456 -0.710191,0.0455 -0.755647,0 -0.04459,-0.0444 0.04446,-0.14439 0,-0.18891 -0.04549,-0.0454 -0.710191,0.0455 -0.755648,0 -0.04459,-0.0444 0.04446,-0.14439 0,-0.18891 -0.0078,-0.008 -0.686279,0 -0.755654,0 -0.503766,0 0.06297,0.063 -0.188913,-0.18892 -0.04453,-0.0444 -0.125939,0 -0.188909,0 -0.06297,0 -0.12594,0 -0.188915,0 -0.377821,0 -0.755649,0 -1.133473,0 -0.06297,0 -0.144384,0.0444 -0.188913,0 -0.04452,-0.0444 0.04453,-0.14439 0,-0.18891 -0.04452,-0.0444 -0.125939,0 -0.188913,0 -0.06297,0 -0.125939,0 -0.188911,0 -0.08907,0 -0.936,-0.009 -0.944563,0 -0.04453,0.0445 0.04452,0.14438 0,0.18891 -0.03862,0.0387 -0.491835,-0.0374 -0.566736,0 -0.07965,0.0398 -0.109269,0.14909 -0.188913,0.18892 -0.112639,0.0563 -0.288773,-0.0891 -0.377824,0 -0.0061,0.007 0,0.52092 0,0.56674 0,0.063 -0.04453,0.14438 0,0.18891 0.04452,0.0444 0.144386,-0.0444 0.18891,0 0.08905,0.0891 -0.08905,0.28877 0,0.37782 0.04453,0.0445 0.144385,-0.0446 0.188914,0 0.04453,0.0445 -0.03497,0.13655 0,0.18892 0.156483,0.23434 0.368717,0.42624 0.553072,0.63936 z"
         style="fill:#eb5a5a;fill-opacity:1;stroke:#eb5a5a;stroke-width:0.341968;stroke-linecap:round;stroke-linejoin:round;stroke-miterlimit:4;stroke-dasharray:none;stroke-opacity:1" />
    </g>
    <path
       style="fill:#a1bdc3;fill-opacity:1;stroke:#6b97a0;stroke-width:2.39472747;stroke-linejoin:round;stroke-miterlimit:4;stroke-dasharray:none;stroke-opacity:1"
       d="m 54.273436,292.37429 h 13.682857 l -2.674002,-52.22125 c 0,0 8.041671,-4.23983 9.265979,-7.01186 1.224297,-2.772 2.110883,-9.38946 2.110883,-9.38946 l -0.231341,-27.85723 h -4.92978 v 20.12007 c 0,0 -2.034464,2.16409 -3.410836,2.19321 -1.37639,0.029 -3.331802,-2.19321 -3.331802,-2.19321 l -0.661092,-20.12007 h -7.175677 l -0.658621,19.98506 c 0,0 -2.115766,2.38338 -3.239596,2.38338 -1.123833,0 -3.503866,-2.38338 -3.503866,-2.38338 v -19.98506 h -4.747836 l -0.595229,27.38055 c 0,0 1.697515,7.38025 3.18361,10.20863 1.48608,2.82838 9.590348,6.66937 9.590348,6.66937 z"
       id="path904"
       inkscape:connector-curvature="0" />
  </g>
</svg>
