<?xml version="1.0" encoding="UTF-8" standalone="no"?>
<!-- Created with Inkscape (http://www.inkscape.org/) -->

<svg
   xmlns:dc="http://purl.org/dc/elements/1.1/"
   xmlns:cc="http://creativecommons.org/ns#"
   xmlns:rdf="http://www.w3.org/1999/02/22-rdf-syntax-ns#"
   xmlns:svg="http://www.w3.org/2000/svg"
   xmlns="http://www.w3.org/2000/svg"
   xmlns:sodipodi="http://sodipodi.sourceforge.net/DTD/sodipodi-0.dtd"
   xmlns:inkscape="http://www.inkscape.org/namespaces/inkscape"
   width="512"
   height="512"
   viewBox="0 0 135.46666 135.46666"
   version="1.1"
   id="svg8"
   inkscape:version="0.92.4 (5da689c313, 2019-01-14)"
   sodipodi:docname="word-penne.svg">
  <defs
     id="defs2" />
  <sodipodi:namedview
     id="base"
     pagecolor="#ffffff"
     bordercolor="#666666"
     borderopacity="1.0"
     inkscape:pageopacity="0.0"
     inkscape:pageshadow="2"
     inkscape:zoom="0.90509668"
     inkscape:cx="227.39013"
     inkscape:cy="190.2924"
     inkscape:document-units="mm"
     inkscape:current-layer="layer1"
     showgrid="false"
     units="px"
     inkscape:window-width="1920"
     inkscape:window-height="1027"
     inkscape:window-x="-8"
     inkscape:window-y="1072"
     inkscape:window-maximized="1" />
  <metadata
     id="metadata5">
    <rdf:RDF>
      <cc:Work
         rdf:about="">
        <dc:format>image/svg+xml</dc:format>
        <dc:type
           rdf:resource="http://purl.org/dc/dcmitype/StillImage" />
        <dc:title></dc:title>
      </cc:Work>
    </rdf:RDF>
  </metadata>
  <g
     inkscape:label="レイヤー 1"
     inkscape:groupmode="layer"
     id="layer1"
     transform="translate(0,-161.53336)">
    <path
       style="fill:#a1bdc3;fill-opacity:1;stroke:#6b97a0;stroke-width:1.5031513;stroke-linejoin:round;stroke-miterlimit:4;stroke-dasharray:none;stroke-opacity:1"
       d="m 71.564394,182.80069 h 3.094411 l -0.154289,-18.66464 -2.940122,0.0601 z"
       id="path908"
       inkscape:connector-curvature="0" />
    <path
       style="fill:#a1bdc3;fill-opacity:1;stroke:#6b97a0;stroke-width:1.5031513;stroke-linejoin:round;stroke-miterlimit:4;stroke-dasharray:none;stroke-opacity:1"
       d="m 62.412742,182.80069 h 4.50436 l -0.611136,-18.60453 h -3.280755 z"
       id="path906"
       inkscape:connector-curvature="0" />
    <path
       style="fill:#a1bdc3;fill-opacity:1;stroke:#6b97a0;stroke-width:1.5031513;stroke-linejoin:round;stroke-miterlimit:4;stroke-dasharray:none;stroke-opacity:1"
       d="m 54.78659,182.80069 h 2.980196 v -18.60453 l -2.576784,0.0601 z"
       id="rect851"
       inkscape:connector-curvature="0" />
    <path
       style="fill:#f4ff46;fill-opacity:1;stroke:#beca00;stroke-width:1.57922566;stroke-miterlimit:4;stroke-dasharray:none;stroke-opacity:1"
       d="m 123.92077,177.03294 c -0.26745,-0.0188 -0.55027,-0.0212 -0.8472,-0.008 0,0 -30.126048,-5.06808 -45.707978,-6.37239 -15.581931,-1.30432 -47.699429,-1.38879 -47.699429,-1.38879 l -18.805532,14.98421 0.95521,0.86016 c 0,0 36.057412,0.49204 51.83661,1.80313 15.779199,1.31108 42.838579,6.0634 42.838579,6.0634 5.61987,0.97649 14.14431,-4.51362 16.77293,-7.15014 1.92045,-2.83668 5.99936,-8.35789 1.42772,-8.66512 -0.23861,-0.06 -0.496,-0.10232 -0.77091,-0.12706 z"
       id="path825-6"
       inkscape:connector-curvature="0"
       sodipodi:nodetypes="cczccczccccc" />
    <ellipse
       style="fill:#edf1b9;fill-opacity:1;stroke:#beca00;stroke-width:1.79538155;stroke-miterlimit:4;stroke-dasharray:none;stroke-opacity:1"
       id="path825"
       cx="177.43646"
       cy="225.89508"
       rx="7.2929101"
       ry="11.394953"
       transform="matrix(0.99656582,0.08280437,-0.69543775,0.71858635,0,0)" />
    <path
       style="fill:#a1bdc3;fill-opacity:1;stroke:#6b97a0;stroke-width:1.50315154;stroke-linejoin:round;stroke-miterlimit:4;stroke-dasharray:none;stroke-opacity:1"
       d="m 54.786589,182.80069 -0.374027,17.18657 c 0,0 1.065566,4.63254 1.998375,6.40789 0.932807,1.77535 6.019838,4.18643 6.019838,4.18643 l -4.088255,79.83751 c 0,0 4.274966,4.0069 6.873423,3.97805 2.598458,-0.0289 6.534131,-3.97805 6.534131,-3.97805 l -4.087589,-79.83751 c 0,0 5.047639,-2.66152 5.816127,-4.4015 0.768484,-1.73997 1.325127,-5.8936 1.325127,-5.8936 l -0.144934,-17.48579 h -3.094411 v 12.62944 c 0,0 -1.277366,1.35828 -2.141306,1.37656 -0.863945,0.0182 -2.091218,-1.37656 -2.091218,-1.37656 l -0.414769,-12.62944 h -4.504359 l -0.413435,12.54462 c 0,0 -1.327684,1.4961 -2.033106,1.4961 -0.705418,0 -2.199415,-1.4961 -2.199415,-1.4961 v -12.54462 z"
       id="path904"
       inkscape:connector-curvature="0" />
    <path
       style="fill:none;stroke:#beca00;stroke-width:1.19688809;stroke-linecap:round;stroke-linejoin:miter;stroke-miterlimit:4;stroke-dasharray:none;stroke-opacity:1"
       d="m 30.722739,171.85641 27.509804,0.67717"
       id="path916"
       inkscape:connector-curvature="0" />
    <path
       style="fill:none;stroke:#beca00;stroke-width:1.14642513;stroke-linecap:round;stroke-linejoin:miter;stroke-miterlimit:4;stroke-dasharray:none;stroke-opacity:1"
       d="m 29.723288,174.58164 23.456549,0.72865"
       id="path916-2"
       inkscape:connector-curvature="0" />
    <path
       style="fill:none;stroke:#beca00;stroke-width:1.07913589;stroke-linecap:round;stroke-linejoin:miter;stroke-miterlimit:4;stroke-dasharray:none;stroke-opacity:1"
       d="m 28.143865,176.83282 18.997296,0.79717"
       id="path916-2-6"
       inkscape:connector-curvature="0" />
    <path
       style="fill:none;stroke:#beca00;stroke-width:1.19688809;stroke-linecap:round;stroke-linejoin:miter;stroke-miterlimit:4;stroke-dasharray:none;stroke-opacity:1"
       d="m 83.452714,186.91165 c 5.257056,-0.025 28.417096,4.89554 27.916416,5.14589"
       id="path916-3"
       inkscape:connector-curvature="0"
       sodipodi:nodetypes="cc" />
    <path
       style="fill:none;stroke:#beca00;stroke-width:1.19688809;stroke-linecap:round;stroke-linejoin:miter;stroke-miterlimit:4;stroke-dasharray:none;stroke-opacity:1"
       d="m 91.200523,185.61279 c 5.257057,-0.0249 24.526617,5.01525 24.025947,5.2656"
       id="path916-3-0"
       inkscape:connector-curvature="0"
       sodipodi:nodetypes="cc" />
    <path
       style="fill:none;stroke:#beca00;stroke-width:1.19688809;stroke-linecap:round;stroke-linejoin:miter;stroke-miterlimit:4;stroke-dasharray:none;stroke-opacity:1"
       d="m 98.023816,184.35586 c 8.721744,1.0493 21.756844,5.79328 19.596804,5.3853"
       id="path916-3-1"
       inkscape:connector-curvature="0"
       sodipodi:nodetypes="cc" />
    <path
       style="fill:#eb5a5a;fill-opacity:1;stroke:#eb5a5a;stroke-width:0.341968;stroke-linecap:round;stroke-linejoin:round;stroke-miterlimit:4;stroke-dasharray:none;stroke-opacity:1"
       d="m 80.837849,185.89096 c 0.193468,1.04629 0.327115,2.10543 0.580401,3.13889 0.01497,0.0611 0.144386,-0.0444 0.188913,0 0.04452,0.0444 -0.04453,0.14437 0,0.1889 0.08905,0.0891 0.265179,-0.0563 0.377826,0 0.07965,0.0398 0.109258,0.14909 0.188911,0.18892 0.112653,0.0563 0.288772,-0.0891 0.377826,0 0.04453,0.0444 -0.04452,0.14438 0,0.18891 0.04453,0.0444 0.132588,-0.0282 0.18891,0 0.07965,0.0398 0.125939,0.12589 0.188914,0.18891 0.06297,0.063 0.149087,0.1092 0.188913,0.18891 0.02815,0.0563 -0.04452,0.14439 0,0.18892 0.04453,0.0444 0.144386,-0.0444 0.188915,0 0.04452,0.0444 -0.02817,0.13258 0,0.18891 0.03983,0.0796 0.149083,0.1092 0.188909,0.18891 0.02814,0.0563 -0.04453,0.14438 0,0.18892 0.04452,0.0444 0.144386,-0.0445 0.188912,0 0.08905,0.0891 -0.05632,0.26517 0,0.37782 0.03983,0.0796 0.14909,0.1092 0.188915,0.18891 0.05632,0.1127 -0.05632,0.26518 0,0.37783 0.03983,0.0796 0.149084,0.1092 0.188909,0.18891 0.05125,0.10253 -0.05169,0.70396 0,0.75565 0.04452,0.0444 0.144387,-0.0446 0.188913,0 0.04546,0.0455 -0.04546,0.71019 0,0.75565 0.04453,0.0444 0.144389,-0.0444 0.188916,0 0.03865,0.0387 -0.03748,0.49184 0,0.56674 0.0398,0.0797 0.149087,0.1092 0.188908,0.18891 0.03748,0.075 -0.03865,0.52811 0,0.56674 0.04459,0.0444 0.144383,-0.0445 0.188909,0 0.04549,0.0455 -0.04549,0.71019 0,0.75564 0.04459,0.0445 0.144396,-0.0444 0.188921,0 0.03865,0.0387 -0.03748,0.49184 0,0.56674 0.0398,0.0796 0.149088,0.1092 0.188909,0.18891 0.05636,0.1127 -0.08905,0.28878 0,0.37783 0.04446,0.0444 0.144382,-0.0444 0.188908,0 0.04459,0.0444 -0.04446,0.14438 0,0.18891 0.04459,0.0444 0.144396,-0.0444 0.188922,0 0.08905,0.0891 -0.08905,0.28878 0,0.37783 0.04459,0.0444 0.132582,-0.0282 0.188909,0 0.07962,0.0398 0.109213,0.14908 0.188907,0.18891 0.05636,0.0282 0.144384,-0.0444 0.188922,0 0.04459,0.0444 -0.04446,0.14438 0,0.18892 0.04459,0.0444 0.125887,0 0.188909,0 0.440799,0 0.881586,0 1.322385,0 0.503769,0 -0.06294,0.063 0.188909,-0.18892 0.08905,-0.0891 0.288778,0.0891 0.377829,0 0.08905,-0.0891 -0.08905,-0.28877 0,-0.37783 0.04446,-0.0444 0.144384,0.0445 0.188909,0 0.04459,-0.0444 -0.02817,-0.13259 0,-0.18891 0.0398,-0.0797 0.149088,-0.1092 0.188922,-0.18891 0.02817,-0.0563 -0.04446,-0.14439 0,-0.18891 0.04459,-0.0445 0.144382,0.0444 0.188908,0 0.04446,-0.0445 -0.02817,-0.1326 0,-0.18892 0.0398,-0.0796 0.149088,-0.1092 0.188909,-0.18891 0.02817,-0.0563 -0.02817,-0.1326 0,-0.18891 0.0398,-0.0797 0.149087,-0.1092 0.188921,-0.18892 0.02817,-0.0563 -0.04446,-0.14439 0,-0.18891 0.04459,-0.0444 0.144382,0.0445 0.188909,0 0.126017,-0.12601 -0.126017,-0.2518 0,-0.37783 0.04446,-0.0444 0.144382,0.0445 0.188908,0 0,-0.50376 -0.06294,0.063 0.188909,-0.1889 0.04459,-0.0444 -0.04446,-0.14439 0,-0.18891 0.04459,-0.0445 0.144396,0.0444 0.188921,0 0.04459,-0.0445 -0.02817,-0.1326 0,-0.18891 0.0398,-0.0797 0.149087,-0.1092 0.188908,-0.18892 0.02817,-0.0563 -0.04459,-0.14439 0,-0.18891 0.04446,-0.0444 0.144383,0.0444 0.188909,0 0.04459,-0.0444 -0.04446,-0.14439 0,-0.18891 0.04459,-0.0444 0.144383,0.0444 0.188921,0 0.04459,-0.0444 -0.02817,-0.1326 0,-0.18892 0.03981,-0.0796 0.149075,-0.1092 0.188909,-0.18891 0.02817,-0.0563 -0.04459,-0.14439 0,-0.18891 0.503769,0 -0.06294,0.063 0.188908,-0.18892 0.04459,-0.0445 0.144384,0.0445 0.188909,0 0.04459,-0.0445 -0.04446,-0.14439 0,-0.18891 0.04459,-0.0444 0.144396,0.0444 0.188922,0 0.04446,-0.0444 -0.04459,-0.14439 0,-0.18891 0.04446,-0.0444 0.144382,0.0444 0.188909,0 0.04446,-0.0444 -0.04459,-0.14439 0,-0.18891 0.08905,-0.0891 0.288764,0.0891 0.377829,0 0.04459,-0.0446 -0.04446,-0.1444 0,-0.18892 0.08905,-0.0891 0.288765,0.0891 0.377817,0 0.04459,-0.0444 -0.04446,-0.14438 0,-0.18891 0.01887,-0.0189 0.547855,-0.0189 0.566739,0 0.04459,0.0445 -0.04446,0.14438 0,0.18891 0.04459,0.0444 0.144382,-0.0444 0.188908,0 0.04459,0.0444 -0.04446,0.14438 0,0.18892 0.08905,0.0891 0.288778,-0.0891 0.37783,0 0.04446,0.0444 -0.04459,0.14438 0,0.18891 0.04446,0.0444 0.144382,-0.0444 0.188908,0 0.04459,0.0444 -0.02817,0.13258 0,0.18891 0.0398,0.0797 0.149088,0.1092 0.188922,0.18891 0.02817,0.0563 -0.04446,0.14439 0,0.18892 0.04459,0.0444 0.144383,-0.0444 0.188908,0 0.04446,0.0444 -0.02817,0.13258 0,0.18891 0.03981,0.0796 0.149088,0.1092 0.188909,0.18891 0.02817,0.0563 -0.02817,0.1326 0,0.18892 0.0398,0.0797 0.149088,0.1092 0.188922,0.18891 0.02817,0.0563 -0.02817,0.1326 0,0.18891 0.0398,0.0796 0.149087,0.1092 0.188908,0.18892 0.02817,0.0563 -0.02817,0.13257 0,0.18891 0.0398,0.0797 0.149087,0.1092 0.188909,0.18891 0.03748,0.075 -0.03865,0.52811 0,0.56673 0.04459,0.0445 0.144382,-0.0444 0.188907,0 0.0517,0.0516 -0.05118,0.65317 0,0.75565 0.03982,0.0796 0.149089,0.1092 0.188922,0.18892 0.05958,0.11917 -0.05958,0.82538 0,0.94456 0.0398,0.0797 0.149088,0.1092 0.188909,0.18892 0.05932,0.11878 -0.05932,0.6369 0,0.75565 0.0398,0.0797 0.149087,0.1092 0.188909,0.1889 0.05932,0.11878 -0.05932,0.63693 0,0.75565 0.0398,0.0796 0.149087,0.1092 0.188921,0.18892 0.06127,0.12253 -0.05932,0.95549 0,1.13347 0.04446,0.13357 0.154761,0.24122 0.188908,0.37783 0.03477,0.13921 -0.05531,0.83388 0,0.94455 0.0398,0.0796 0.149087,0.1092 0.188909,0.18892 0.02817,0.0563 0,0.12589 0,0.18891 0,0.063 0,0.12589 0,0.18891 0,0.19984 -0.03244,1.22507 0,1.32239 0.02817,0.0845 0.149087,0.1092 0.188922,0.18892 0.03412,0.0683 0,0.81316 0,0.94455 0,0.063 -0.04446,0.14438 0,0.18891 0.04459,0.0445 0.144382,-0.0446 0.188907,0 0.06631,0.0663 -0.06526,0.81408 0,0.94457 0.0398,0.0796 0.149089,0.1092 0.188909,0.18891 0.07561,0.15113 -0.07561,0.4156 0,0.56674 0.0398,0.0796 0.149087,0.1092 0.188909,0.1889 0.05636,0.11271 -0.08905,0.28878 0,0.37783 0.04446,0.0446 0.144395,-0.0444 0.188922,0 0.08905,0.0891 -0.08905,0.28878 0,0.37783 0.04446,0.0444 0.144382,-0.0446 0.188908,0 0.04459,0.0444 -0.04446,0.14438 0,0.18891 0.04459,0.0446 0.144383,-0.0444 0.188921,0 0.04459,0.0446 -0.04446,0.14438 0,0.18891 0.08905,0.0891 0.265178,-0.0563 0.377818,0 0.07962,0.0398 0.109213,0.14908 0.188908,0.18892 0.05751,0.0287 0.481667,0 0.566738,0 0.08504,0 0.509249,0.0287 0.566739,0 0.07962,-0.0398 0.109213,-0.14908 0.188922,-0.18892 0.112703,-0.0563 0.265176,0.0563 0.377816,0 0.07962,-0.0398 0.109213,-0.14908 0.188908,-0.18891 0.112705,-0.0563 0.288779,0.0891 0.377829,0 0.0445,-0.0444 -0.0446,-0.14438 0,-0.18891 0.0445,-0.0446 0.13259,0.0282 0.18891,0 0.62655,-0.62654 -0.1781,0.0891 0.37783,-0.18891 0.22669,-0.11335 0.34003,-0.45339 0.56674,-0.56675 0.0563,-0.0282 0.14438,0.0445 0.18891,0 0.0891,-0.0891 -0.0563,-0.26517 0,-0.37781 0.0797,-0.15931 0.29818,-0.21853 0.37783,-0.37783 0.0563,-0.11258 -0.0891,-0.28877 0,-0.37782 0.0444,-0.0444 0.14438,0.0444 0.18891,0 0.0944,-0.0944 -0.0945,-0.47228 0,-0.56674 0.0444,-0.0444 0.14438,0.0444 0.18891,0 0.0585,-0.0585 -0.0586,-0.88607 0,-0.94457 0.0446,-0.0444 0.14438,0.0444 0.18892,0 0.009,-0.009 0,-0.85549 0,-0.94455 0,-0.12589 -0.0398,-0.25835 0,-0.37783 0.0446,-0.13358 0.14438,-0.24424 0.18891,-0.37782 0.0397,-0.11891 0,-0.77428 0,-0.94457 0,-0.063 -0.0446,-0.14439 0,-0.18891 0.0444,-0.0444 0.14438,0.0444 0.18891,0 0.0446,-0.0444 0,-0.12589 0,-0.18892 0,-0.31484 0,-0.62971 0,-0.94455 0,-0.063 -0.0444,-0.14439 0,-0.18891 0.0446,-0.0446 0.14437,0.0444 0.18891,0 0.0455,-0.0456 -0.0456,-0.71019 0,-0.75565 0.0445,-0.0446 0.14439,0.0444 0.18892,0 0.0454,-0.0454 -0.0455,-0.7102 0,-0.75566 0.0444,-0.0444 0.14437,0.0445 0.1889,0 0.009,-0.009 0,-0.85549 0,-0.94455 0,-0.063 0,-0.12589 0,-0.18891 0,-0.063 -0.0282,-0.1326 0,-0.18892 0.0398,-0.0796 0.14909,-0.1092 0.18891,-0.18891 0.0513,-0.10254 -0.0517,-0.70396 0,-0.75565 0.0445,-0.0445 0.14439,0.0444 0.18892,0 0.0444,-0.0445 0,-0.12601 0,-0.18892 0,-0.31484 0,-0.62971 0,-0.94456 0,-0.50377 -0.063,0.063 0.18891,-0.18892 0.008,-0.008 0,-0.68627 0,-0.75564 0,-0.0694 -0.008,-0.74805 0,-0.75565 0.0444,-0.0444 0.14438,0.0444 0.18891,0 0.0585,-0.0585 -0.0586,-0.88606 0,-0.94456 0.0445,-0.0446 0.14438,0.0444 0.18892,0 0.0945,-0.0944 -0.0944,-0.47228 0,-0.56673 0.0446,-0.0446 0.14438,0.0444 0.18891,0 0.0444,-0.0446 -0.0445,-0.1444 0,-0.18892 0.0444,-0.0444 0.14438,0.0444 0.18891,0 0.0445,-0.0444 -0.0444,-0.14439 0,-0.18891 0.0891,-0.0891 0.26517,0.0563 0.37783,0 0.0797,-0.0398 0.1092,-0.1491 0.18891,-0.18891 0.075,-0.0374 0.52811,0.0387 0.56674,0 0.0444,-0.0445 -0.0446,-0.14439 0,-0.18892 0.0663,-0.0663 0.81407,0.0653 0.94456,0 0.0797,-0.0398 0.1092,-0.1491 0.18891,-0.18891 0.10253,-0.0512 0.70396,0.0516 0.75565,0 0.0444,-0.0444 -0.0446,-0.14439 0,-0.18891 0.0944,-0.0944 0.47228,0.0944 0.56674,0 0.0444,-0.0446 -0.0446,-0.14439 0,-0.18891 0.0444,-0.0445 0.1326,0.0282 0.18891,0 0.0797,-0.0398 0.1092,-0.14909 0.18892,-0.18892 0.0563,-0.0282 0.14438,0.0445 0.18891,0 0.0444,-0.0444 -0.0446,-0.14439 0,-0.18891 0.0444,-0.0446 0.13257,0.0282 0.18891,0 0.1593,-0.0797 0.21851,-0.29818 0.37783,-0.37783 0.0563,-0.0282 0.14437,0.0445 0.1889,0 0.0446,-0.0444 -0.0446,-0.14439 0,-0.18891 0.0446,-0.0444 0.14438,0.0444 0.18891,0 0.0446,-0.0444 -0.0444,-0.14439 0,-0.18891 0.0446,-0.0444 0.14439,0.0444 0.18892,0 0.0444,-0.0444 -0.0282,-0.13259 0,-0.18891 0.0398,-0.0797 0.14909,-0.1092 0.18891,-0.18892 0.0282,-0.0563 -0.0446,-0.14438 0,-0.1889 0.0444,-0.0444 0.14438,0.0444 0.18891,0 0.0446,-0.0444 -0.0282,-0.1326 0,-0.18891 0.10076,-0.20164 0.27701,-0.17619 0.37783,-0.37783 0.0282,-0.0563 -0.0446,-0.14439 0,-0.18891 0.0444,-0.0445 0.14438,0.0444 0.18891,0 0.0446,-0.0445 -0.0444,-0.1444 0,-0.18892 0.0446,-0.0444 0.14438,0.0444 0.18891,0 0.0444,-0.0444 -0.0446,-0.14439 0,-0.18891 0.0444,-0.0444 0.14439,0.0445 0.18892,0 0.0444,-0.0444 -0.0446,-0.14439 0,-0.18891 0.0444,-0.0446 0.14438,0.0444 0.18891,0 0.0891,-0.0891 -0.0891,-0.28878 0,-0.37783 0.0446,-0.0444 0.1326,0.0282 0.18891,0 0.78621,-0.39311 -0.20195,0.0131 0.18892,-0.37783 0.0444,-0.0444 0.14438,0.0445 0.18891,0 0.0444,-0.0444 -0.0446,-0.14439 0,-0.18891 0.0444,-0.0444 0.14437,0.0445 0.1889,0 0.0446,-0.0444 -0.0444,-0.14439 0,-0.18891 0.0446,-0.0445 0.14438,0.0444 0.18893,0 0.0446,-0.0445 -0.0444,-0.14438 0,-0.18891 0.0446,-0.0445 0.14437,0.0444 0.1889,0 0.0891,-0.0891 -0.0891,-0.28877 0,-0.37782 0.50377,0 -0.063,0.063 0.18891,-0.18891 0.0445,-0.0444 0.14438,0.0444 0.18891,0 0.0944,-0.0944 -0.0944,-0.47229 0,-0.56674 0.0444,-0.0444 0.14438,0.0444 0.18892,0 0.0585,-0.0585 -0.0585,-0.88607 0,-0.94457 0.0444,-0.0444 0.14438,0.0444 0.18891,0 0.0446,-0.0444 0,-0.12589 0,-0.18891 0,-0.0891 0.009,-0.936 0,-0.94457 -0.50376,0 0.063,0.063 -0.18891,-0.1889 -0.0585,-0.0585 -0.88607,0.0585 -0.94457,0 -0.0444,-0.0444 0.0446,-0.14439 0,-0.18891 -0.0444,-0.0446 -0.12588,0 -0.1889,0 -0.37783,0 -0.75565,0 -1.13348,0 -0.063,0 -0.12589,0 -0.18891,0 -0.063,0 -0.14439,-0.0446 -0.18891,0 -0.0444,0.0444 0.0446,0.14437 0,0.18891 -0.0585,0.0585 -0.88607,-0.0585 -0.94457,0 -0.0446,0.0445 0.0446,0.14437 0,0.1889 -0.0517,0.0517 -0.65316,-0.0512 -0.75564,0 -0.0797,0.0398 -0.1092,0.14909 -0.18891,0.18892 -0.1127,0.0563 -0.28878,-0.0891 -0.37783,0 -0.0446,0.0444 0.0444,0.14438 0,0.18891 -0.0944,0.0944 -0.47229,-0.0944 -0.56674,0 -0.0446,0.0445 0.0444,0.14438 0,0.18891 -0.0454,0.0455 -0.71019,-0.0455 -0.75565,0 -0.0446,0.0444 0.0444,0.14439 0,0.18892 -0.0387,0.0387 -0.49183,-0.0374 -0.56674,0 -0.0797,0.0398 -0.1092,0.14907 -0.1889,0.18891 -0.11258,0.0563 -0.2652,-0.0563 -0.37783,0 -0.0797,0.0398 -0.1092,0.14908 -0.18891,0.18891 -0.15113,0.0756 -0.41561,-0.0757 -0.56674,0 -0.0797,0.0398 -0.1092,0.14908 -0.18892,0.18892 -0.0563,0.0282 -0.13259,-0.0282 -0.18891,0 -0.0797,0.0398 -0.1092,0.14908 -0.18891,0.18891 -0.1127,0.0563 -0.26518,-0.0563 -0.37783,0 -0.0797,0.0398 -0.10921,0.14908 -0.18891,0.18891 -0.1127,0.0563 -0.26518,-0.0563 -0.37783,0 -0.0797,0.0398 -0.10921,0.14908 -0.18891,0.18891 -0.15113,0.0756 -0.4156,-0.0757 -0.56673,0 -0.0797,0.0398 -0.10921,0.14908 -0.18891,0.18892 -0.11478,0.0574 -1.01877,-0.0574 -1.13348,0 -0.0797,0.0398 -0.10921,0.14908 -0.18891,0.18891 -0.0489,0.0244 -0.99958,0 -1.13348,0 -0.0629,0 -0.144381,-0.0444 -0.188907,0 -0.04446,0.0444 0.04459,0.14438 0,0.18891 -0.04446,0.0445 -0.125888,0 -0.188922,0 -0.131392,0 -0.876234,-0.0341 -0.944555,0 -0.07962,0.0398 -0.109213,0.14908 -0.188909,0.18892 -0.06838,0.0341 -0.813175,0 -0.944567,0 -0.06294,0 -0.144383,-0.0444 -0.188909,0 -0.04459,0.0444 0.04446,0.14437 0,0.18891 -0.04459,0.0444 -0.125887,0 -0.188909,0 -0.06294,0 -0.125887,0 -0.188921,0 -0.818617,0 -1.637233,0 -2.455862,0 -0.377817,0 -0.755648,0 -1.133478,0 -0.06294,0 -0.144382,0.0444 -0.188908,0 -0.04459,-0.0446 0.04446,-0.14439 0,-0.18891 -0.04459,-0.0444 -0.125887,0 -0.188909,0 -0.131406,0 -0.876248,0.0341 -0.944568,0 -0.07962,-0.0398 -0.109213,-0.1491 -0.188908,-0.18892 -0.05636,-0.0282 -0.125888,0 -0.188909,0 -0.06294,0 -0.125887,0 -0.188922,0 -0.314846,0 -0.629708,0 -0.944555,0 -0.06294,0 -0.132595,0.0282 -0.188909,0 -0.07962,-0.0398 -0.109213,-0.14909 -0.188921,-0.18891 -0.151129,-0.0757 -0.415609,0.0756 -0.566738,0 -0.07962,-0.0398 -0.109213,-0.1491 -0.188909,-0.18891 -0.112703,-0.0563 -0.265178,0.0563 -0.377817,0 -0.07962,-0.0398 -0.109213,-0.14909 -0.188921,-0.18892 -0.112575,-0.0563 -0.265178,0.0563 -0.377817,0 -0.07962,-0.0398 -0.109213,-0.14908 -0.188922,-0.18891 -0.07496,-0.0374 -0.528119,0.0387 -0.566738,0 -0.04446,-0.0444 0.04459,-0.14439 0,-0.18891 -0.03865,-0.0387 -0.491827,0.0374 -0.566726,0 -0.07962,-0.0398 -0.109214,-0.14909 -0.188921,-0.18891 -0.07496,-0.0374 -0.52812,0.0387 -0.566738,0 -0.04446,-0.0446 0.04459,-0.1444 0,-0.18892 -0.04549,-0.0456 -0.710191,0.0455 -0.755647,0 -0.04459,-0.0444 0.04446,-0.14439 0,-0.18891 -0.04549,-0.0454 -0.710191,0.0455 -0.755648,0 -0.04459,-0.0444 0.04446,-0.14439 0,-0.18891 -0.0078,-0.008 -0.686279,0 -0.755654,0 -0.503766,0 0.06297,0.063 -0.188913,-0.18892 -0.04453,-0.0444 -0.125939,0 -0.188909,0 -0.06297,0 -0.12594,0 -0.188915,0 -0.377821,0 -0.755649,0 -1.133473,0 -0.06297,0 -0.144384,0.0444 -0.188913,0 -0.04452,-0.0444 0.04453,-0.14439 0,-0.18891 -0.04452,-0.0444 -0.125939,0 -0.188913,0 -0.06297,0 -0.125939,0 -0.188911,0 -0.08907,0 -0.936,-0.009 -0.944563,0 -0.04453,0.0445 0.04452,0.14438 0,0.18891 -0.03862,0.0387 -0.491835,-0.0374 -0.566736,0 -0.07965,0.0398 -0.109269,0.14909 -0.188913,0.18892 -0.112639,0.0563 -0.288773,-0.0891 -0.377824,0 -0.0061,0.007 0,0.52092 0,0.56674 0,0.063 -0.04453,0.14438 0,0.18891 0.04452,0.0444 0.144386,-0.0444 0.18891,0 0.08905,0.0891 -0.08905,0.28877 0,0.37782 0.04453,0.0445 0.144385,-0.0446 0.188914,0 0.04453,0.0445 -0.03497,0.13655 0,0.18892 0.156483,0.23434 0.368717,0.42624 0.553072,0.63936 z"
       id="path1001"
       inkscape:connector-curvature="0" />
    <g
       aria-label="Word
Penne"
       transform="matrix(0.34196801,0,0,0.34196801,0.94866837,120.13438)"
       style="font-style:normal;font-weight:normal;font-size:40px;line-height:1.25;font-family:sans-serif;letter-spacing:0px;word-spacing:0px;fill:#fffdfd;fill-opacity:1;stroke:#eb5a5a;stroke-width:4.30000019;stroke-linecap:round;stroke-linejoin:round;stroke-miterlimit:4;stroke-dasharray:none;stroke-opacity:1"
       id="flowRoot1003">
      <path
         d="m 80.083334,349.29906 q 0.916666,-3.79167 2.375,-7.91667 1.5,-4.125 3.125,-8.41667 1.625,-4.29166 3.208333,-8.70833 1.583334,-4.45833 2.708334,-8.875 0.291666,-1.08333 0.5,-2 0.208333,-0.91667 0.416666,-1.95833 0.5,-1.08334 1.333334,-1.66667 0.875,-0.58333 1.875,-0.58333 0.916666,0 1.708333,0.29166 0.833334,0.29167 1.416667,0.95834 0.625,0.625 0.958333,1.625 0.374996,1 0.374996,2.375 0,1.5 -0.458329,3.41666 -1.625,4.16667 -3.291667,8.16667 -1.666667,4 -3.25,7.83333 -1.541667,3.83334 -2.875,7.58334 -1.333333,3.75 -2.291667,7.41666 -0.08333,0.29167 -0.333333,1.29167 -0.25,0.95833 -0.541667,2.33333 -0.25,1.375 -0.458333,2.95834 -0.208333,1.54166 -0.208333,3 0,1 0.125,1.91666 0.125,0.875 0.416666,1.54167 0.291667,0.66667 0.791667,1.04167 0.5,0.375 1.25,0.375 1.583333,0 3.875,-1.625 2.291667,-1.66667 4.958334,-4.5 2.666662,-2.83334 5.458332,-6.625 2.83333,-3.79167 5.5,-8.125 2.66667,-4.33334 4.95833,-8.91667 2.29167,-4.58333 3.875,-9.04167 0.375,-0.79166 0.91667,-1 0.54167,-0.25 1.41667,-0.25 1.625,0 2.70833,1 1.125,0.95834 1.125,2.5 0,0.375 -0.0833,0.70834 -0.0833,0.33333 -0.25,0.79166 l -0.58334,1.70834 q -0.66666,1.95833 -1.29166,3.625 -0.58334,1.625 -0.95834,3.08333 -0.54166,2.08333 -0.875,3.83333 -0.33333,1.70834 -0.54166,3.25 -0.16667,1.5 -0.25,2.95834 -0.0417,1.45833 -0.0417,2.95833 0,0.58333 0.0833,1.70833 0.125,1.125 0.33334,2.5 0.20833,1.33334 0.54166,2.75 0.375,1.375 0.83334,2.54167 0.5,1.16667 1.125,1.91667 0.66666,0.70833 1.5,0.70833 1.29166,0 2.70833,-1.04167 1.45834,-1.08333 2.91667,-2.91666 1.45833,-1.875 2.91667,-4.375 1.5,-2.5 2.875,-5.375 1.41666,-2.875 2.66666,-5.95834 1.29167,-3.08333 2.33334,-6.08333 1.08333,-3.04167 1.875,-5.83333 0.83333,-2.83334 1.33333,-5.16667 0.45833,-2.20833 0.79167,-4.29167 0.33333,-2.08333 0.66666,-4.16666 0.33334,-2.08334 0.70834,-4.16667 0.41666,-2.125 1,-4.33333 0.20833,-0.79167 0.625,-1.625 0.41666,-0.83334 1,-1.5 0.625,-0.70834 1.33333,-1.125 0.70833,-0.45834 1.45833,-0.45834 1.875,0 2.54167,1.04167 0.66667,1 0.66667,3.375 0,1.75 -0.33334,4.08333 -0.29166,2.33334 -0.79166,4.91667 -0.45834,2.54167 -1.04167,5.16667 -0.58333,2.625 -1.16667,4.95833 -1.16666,4.75 -3.08333,9.875 -1.91667,5.08333 -4.29167,9.95833 -2.33333,4.83334 -5,9.125 -2.625,4.29167 -5.29166,7.375 -0.91667,1.08334 -2.16667,2.20834 -1.25,1.125 -2.70833,2.04167 -1.41667,0.91666 -2.91667,1.5 -1.45834,0.625 -2.83334,0.625 -2.875,0 -4.83333,-1.66667 -1.91667,-1.70833 -3.16667,-4.5 -1.20833,-2.83334 -1.875,-6.41667 -0.625,-3.625 -0.91666,-7.45833 -2.33334,3.45833 -4.29167,6.16666 -1.91667,2.70834 -3.91667,5 -1.5,1.70834 -3.374996,3.70834 -1.875,1.95833 -4,3.625 -2.083333,1.70833 -4.291667,2.79167 -2.208333,1.125 -4.333333,1.125 -2.458334,0 -4.125,-0.875 -1.625,-0.83334 -2.625,-2.33334 -1,-1.5 -1.458334,-3.54166 -0.416666,-2.04167 -0.416666,-4.41667 0,-2.75 0.458333,-5.66667 0.458333,-2.91667 1.166667,-5.83333 z"
         style="font-style:normal;font-variant:normal;font-weight:normal;font-stretch:normal;font-size:85.33333588px;line-height:1.25;font-family:'MV Boli';-inkscape-font-specification:'MV Boli';fill:#fffdfd;fill-opacity:1;stroke:#eb5a5a;stroke-width:4.30000019;stroke-linecap:round;stroke-linejoin:round;stroke-miterlimit:4;stroke-dasharray:none;stroke-opacity:1"
         id="path1013" />
      <path
         d="m 156.33333,352.00739 q 0.625,-2.54167 1.91667,-5.375 1.33333,-2.875 3.45833,-5.79167 2.125,-2.91666 5.08334,-5.70833 3,-2.79167 6.91666,-5.20833 0.625,-0.375 1.91667,-0.79167 1.29167,-0.45833 2.66667,-0.54167 1.625,-1.75 4.375,-1.75 3.25,0 5.45833,1.66667 2.25,1.625 3.70833,4.45833 0.45834,0.91667 0.83334,1.79167 0.41666,0.875 0.66666,1.875 0.29167,0.95833 0.45834,2.08333 0.16666,1.125 0.16666,2.54167 0,3.29167 -1.04166,6.70833 -1.04167,3.41667 -2.95834,6.66667 -1.91666,3.25 -4.66666,6.25 -2.70834,2.95833 -6.04167,5.33334 -2.25,1.625 -5,2.5 -2.70833,0.91666 -6.08333,0.91666 -3.20834,0 -5.58334,-0.875 -2.33333,-0.83333 -3.91666,-2.41666 -1.54167,-1.58334 -2.33334,-3.79167 -0.75,-2.20834 -0.75,-4.91667 0,-2.625 0.75,-5.625 z m 6.91667,0.54167 q -0.25,0.95833 -0.375,1.83333 -0.0833,0.83333 -0.0833,1.625 0,1.375 0.33333,2.58333 0.375,1.16667 1.16667,2.04167 0.79166,0.83333 1.95833,1.33333 1.20833,0.45834 2.91667,0.45834 3.16666,0 5.875,-1.58334 2.75,-1.625 4.875,-4.04166 2.125,-2.41667 3.54166,-5.16667 1.45834,-2.79167 2.04167,-5.125 0.375,-1.45833 0.625,-2.75 0.29167,-1.29167 0.29167,-2.375 0,-1.08333 -0.41667,-2 -0.375,-0.95833 -1,-2.125 -0.375,-0.70833 -0.75,-1.45833 -0.375,-0.79167 -0.66667,-1.54167 -0.33333,0.58333 -0.70833,1.04167 -0.375,0.41666 -1.125,0.79166 -0.75,0.33334 -2.04167,0.625 -1.29166,0.29167 -3.375,0.5 -1.375,0.45834 -2.79166,1.41667 -1.41667,0.95833 -2.79167,2.25 -1.33333,1.29167 -2.58333,2.79167 -1.20834,1.5 -2.20834,3.08333 -0.95833,1.54167 -1.70833,3.04167 -0.70833,1.5 -1,2.75 z"
         style="font-style:normal;font-variant:normal;font-weight:normal;font-stretch:normal;font-size:85.33333588px;line-height:1.25;font-family:'MV Boli';-inkscape-font-specification:'MV Boli';fill:#fffdfd;fill-opacity:1;stroke:#eb5a5a;stroke-width:4.30000019;stroke-linecap:round;stroke-linejoin:round;stroke-miterlimit:4;stroke-dasharray:none;stroke-opacity:1"
         id="path1015" />
      <path
         d="m 201.91667,363.67406 q 0.54167,-2.91667 1.25,-6.41667 0.70834,-3.5 1.45834,-7.08333 0.75,-3.58334 1.45833,-7.04167 0.70833,-3.45833 1.20833,-6.33333 -0.0417,-0.41667 -0.0417,-0.70834 0,-0.33333 0,-0.70833 0,-1.29167 0.16666,-2.58333 0.16667,-1.29167 0.45834,-2.375 0.45833,-1.58334 1,-2.125 0.58333,-0.58334 1.83333,-0.58334 1.20833,0 1.91667,0.5 0.75,0.45834 1.16666,1.25 0.41667,0.79167 0.54167,1.83334 0.125,1 0.125,2.08333 0,0.58333 -0.0417,1.29167 -0.0417,0.70833 -0.0417,1.125 1.16666,-1.20834 2.45833,-2.45834 1.33333,-1.29166 2.79167,-2.29166 1.5,-1.04167 3.125,-1.70834 1.66666,-0.66666 3.45833,-0.66666 0.70833,0 1.375,0.125 0.70833,0.125 1.41667,0.33333 0.83333,0.20833 1.70833,0.58333 0.91667,0.33334 1.75,0.95834 1.375,1.04166 2.29167,2.625 0.95833,1.54166 0.95833,3.16666 0,0.625 -0.25,1.375 -0.25,0.70834 -0.70833,1.33334 -0.41667,0.58333 -1,1 -0.58334,0.375 -1.29167,0.375 -0.70833,0 -1.75,-0.33334 -1,-0.375 -1.66667,-0.95833 -0.29166,-0.25 -0.625,-0.70833 -0.29166,-0.45834 -0.58333,-0.91667 -0.25,-0.45833 -0.5,-0.83333 -0.20833,-0.41667 -0.33333,-0.54167 -0.20834,-0.0417 -0.45834,-0.0417 -0.25,-0.0417 -0.45833,-0.0417 -2.125,0 -4.04167,1.08333 -1.91666,1.08333 -3.58333,2.66667 -1.66667,1.54166 -3.08333,3.33333 -1.375,1.75 -2.41667,3.16667 -0.83333,3.375 -1.875,7.20833 -1,3.79167 -2,7.95833 v 1.04167 q 0,1.25 -0.0833,2.54167 -0.0833,1.29167 -0.5,2.29167 -0.45834,0.625 -1.33334,1.04166 -0.83333,0.45834 -1.95833,0.45834 -1.75,0 -2.625,-1.125 -0.875,-1.16667 -0.875,-2.70834 0,-0.70833 0.20833,-1.45833 z"
         style="font-style:normal;font-variant:normal;font-weight:normal;font-stretch:normal;font-size:85.33333588px;line-height:1.25;font-family:'MV Boli';-inkscape-font-specification:'MV Boli';fill:#fffdfd;fill-opacity:1;stroke:#eb5a5a;stroke-width:4.30000019;stroke-linecap:round;stroke-linejoin:round;stroke-miterlimit:4;stroke-dasharray:none;stroke-opacity:1"
         id="path1017" />
      <path
         d="m 236.95833,353.67406 q 0.54167,-2.25 1.41667,-4.5 0.91667,-2.25 2.25,-4.45834 1.33333,-2.20833 3.16667,-4.29166 1.83333,-2.125 4.29166,-4.04167 1.66667,-1.33333 3.5,-2.5 1.875,-1.20833 3.79167,-2.08333 1.91667,-0.875 3.83333,-1.375 1.95834,-0.54167 3.83334,-0.54167 1.375,0 2.41666,0.25 1.08334,0.20833 2.04167,0.625 0.41667,-1.45833 2.20833,-7.83333 1.83334,-6.375 4.45834,-17.75 0.45833,-1.125 1.29166,-1.875 0.83334,-0.75 2,-0.75 0.83334,0 1.625,0.16666 0.79167,0.125 1.41667,0.58334 0.625,0.41666 1,1.16666 0.375,0.75 0.375,1.95834 l -8.375,33.45833 q -0.375,1.41667 -0.70833,3.83333 -0.33334,2.375 -0.625,5.04167 -0.29167,2.66667 -0.45834,5.29167 -0.16666,2.58333 -0.16666,4.45833 0,2.33333 -0.54167,4.625 -0.25,1 -0.54167,1.70833 -0.25,0.66667 -0.70833,1.12501 -0.45833,0.41666 -1.16667,0.625 -0.66666,0.16666 -1.70833,0.16666 -1.20833,0 -1.875,-0.25 -0.66667,-0.25 -1,-0.66666 -0.33333,-0.45834 -0.41667,-1.00001 -0.0417,-0.58333 -0.0833,-1.20833 0,-0.66667 -0.0833,-1.33333 -0.0417,-0.70834 -0.33334,-1.33334 -0.5,0.33334 -1.375,0.875 -0.875,0.54167 -1.79166,1.125 -0.875,0.54167 -1.66667,1.04167 -0.79167,0.45833 -1.16667,0.66667 -0.95833,0.54167 -2.16666,1.16667 -1.20834,0.58333 -2.625,1.125 -1.375,0.5 -2.91667,0.83333 -1.5,0.33333 -3.04167,0.33333 -1.875,0 -3.66666,-0.625 -1.75,-0.625 -3.16667,-1.91666 -1.375,-1.29167 -2.20833,-3.25001 -0.83334,-2 -0.83334,-4.66666 0,-0.95834 0.0833,-1.875 0.125,-0.95834 0.41666,-2.125 z m 7.20834,-0.33334 q -0.33334,1.25 -0.33334,2.41667 0,1.20833 0.20834,2.29167 0.20833,1.04166 0.75,1.83333 0.58333,0.79167 1.5,1.29167 0.95833,0.45833 2.45833,0.45833 0.83333,0 1.79167,-0.29167 0.95833,-0.29166 1.875,-0.70833 0.95833,-0.45833 1.75,-0.91667 0.83333,-0.5 1.41666,-0.875 1.58334,-1.04166 2.91667,-2.04166 1.375,-1 2.45833,-2.16667 1.08334,-1.16667 1.875,-2.58333 0.83334,-1.45834 1.33334,-3.33334 0.41666,-1.66666 0.70833,-3.04166 0.33333,-1.375 0.58333,-2.66667 0.25,-1.33333 0.45834,-2.70833 0.20833,-1.375 0.41666,-3.04167 -0.20833,-0.25 -0.58333,-0.45833 -0.33333,-0.25 -1.04167,-0.25 -1.66666,0 -3.66666,0.58333 -2,0.54167 -4.125,1.58333 -2.08334,1.04167 -4.125,2.54167 -2,1.5 -3.75,3.375 -1.70834,1.83333 -3,4.04167 -1.29167,2.20833 -1.875,4.66666 z"
         style="font-style:normal;font-variant:normal;font-weight:normal;font-stretch:normal;font-size:85.33333588px;line-height:1.25;font-family:'MV Boli';-inkscape-font-specification:'MV Boli';fill:#fffdfd;fill-opacity:1;stroke:#eb5a5a;stroke-width:4.30000019;stroke-linecap:round;stroke-linejoin:round;stroke-miterlimit:4;stroke-dasharray:none;stroke-opacity:1"
         id="path1019" />
      <path
         d="m 76.916667,472.67408 q 0.166667,-0.75 0.458333,-1.41667 0.333334,-0.66666 0.708334,-1.5 0.375,-0.83333 0.791666,-1.95833 0.416667,-1.16667 0.833334,-2.875 l 1.625,-6.66667 q 0.583333,-2.41667 1.208333,-4.91667 0.625,-2.54166 1.458333,-5.70833 0.666667,-2.54167 1.583334,-5.29167 0.958333,-2.79166 1.958333,-5.75 1.041667,-2.95833 2.083334,-6.08333 1.041666,-3.125 1.875,-6.45833 0.04167,-0.125 0.04167,-0.33334 0,-0.33333 -0.208333,-0.41666 -0.208333,-0.0833 -0.541667,-0.0833 -1.041666,0 -1.75,-0.29166 -0.666666,-0.33334 -1.083333,-0.83334 -0.375,-0.5 -0.541667,-1.125 -0.166666,-0.66666 -0.166666,-1.375 0,-1.83333 0.416666,-2.91666 0.458334,-1.125 1.125,-1.70834 0.708334,-0.625 1.5,-0.875 0.833334,-0.29166 1.583334,-0.45833 0.791666,-0.16667 1.375,-0.33333 0.583333,-0.20834 0.833333,-0.70834 0.416667,-0.875 0.75,-1.83333 0.375,-1 0.916667,-1.83333 0.541666,-0.83334 1.333333,-1.375 0.791667,-0.54167 2.083334,-0.54167 0.916662,0 1.625002,0.5 0.70833,0.5 1.20833,1.25 0.54167,0.75 0.91667,1.625 0.375,0.83333 0.66666,1.54167 4.29167,0.125 7.41667,0.5 3.16667,0.375 4.75,0.66666 3.125,0.58334 6.25,1.75 3.16667,1.16667 5.66667,3.04167 2.54167,1.83333 4.125,4.375 1.625,2.5 1.625,5.75 0,1.66667 -0.375,3.45833 l -0.29167,1.45834 q -0.33333,1.75 -1.41666,3.25 -1.04167,1.5 -2.375,2.70833 -3.70834,3.41667 -8.12501,5.75 -4.41666,2.29167 -9.20833,3.875 -4.79167,1.58333 -9.79167,2.66667 -4.999996,1.08333 -9.874996,2.04166 l -1.166667,0.16667 q -0.958333,0.125 -1.125,0.70833 -0.833333,2.875 -1.333333,5.04167 -0.458333,2.16667 -0.875,4.16667 -0.416667,1.95833 -0.833333,3.95833 -0.416667,1.95834 -1.041667,4.375 -0.208334,0.79167 -0.75,1.875 -0.541667,1.08334 -1.291667,2.04167 -0.75,0.95833 -1.75,1.625 -0.958333,0.70833 -2.041667,0.70833 -0.75,0 -1.291666,-0.41666 -0.541667,-0.41667 -0.916667,-1.08334 -0.333333,-0.625 -0.541667,-1.375 -0.166666,-0.75 -0.166666,-1.41666 0,-0.25 0,-0.45834 0,-0.25 0.08333,-0.45833 z m 16.541667,-30.79167 q -0.08333,0.29167 -0.25,0.75 -0.125,0.41667 -0.25,0.91667 -0.125,0.45833 -0.208333,0.875 -0.08333,0.375 -0.08333,0.54166 0,0.20834 0.04167,0.375 0.08333,0.125 0.291667,0.125 0.125,0 0.791666,-0.0833 0.666667,-0.125 1.583334,-0.29167 0.958333,-0.16666 2.041667,-0.375 1.083333,-0.20833 2.083333,-0.41666 2.708329,-0.58334 5.791669,-1.45834 3.08333,-0.91666 6.125,-2.04166 3.08333,-1.125 5.875,-2.41667 2.79166,-1.29167 4.95833,-2.75 2.29167,-1.54167 3.66667,-3.08333 1.375,-1.54167 1.375,-3.29167 0,-1.04167 -0.29167,-1.83333 -0.25,-0.83334 -0.58333,-1.5 -1.25,-2.04167 -3.125,-3.20834 -1.875,-1.16666 -4.08334,-1.75 -2.20833,-0.58333 -4.625,-0.75 -2.41666,-0.16666 -4.75,-0.16666 -0.625,0 -1.91666,0.0833 -1.25,0.0833 -2.66667,0.20833 -1.375,0.125 -2.58333,0.33334 -1.16667,0.16666 -1.58334,0.41666 -0.20833,0.125 -0.375,0.41667 -0.125,0.29167 -0.20833,0.5 -0.33333,0.83333 -0.916666,2.33333 -0.583333,1.45834 -1.25,3.29167 -0.666666,1.83333 -1.416666,3.875 -0.708334,2.04167 -1.375001,4 -0.666666,1.91667 -1.25,3.625 -0.541666,1.66667 -0.833333,2.75 z"
         style="font-style:normal;font-variant:normal;font-weight:normal;font-stretch:normal;font-size:85.33333588px;line-height:1.25;font-family:'MV Boli';-inkscape-font-specification:'MV Boli';fill:#fffdfd;fill-opacity:1;stroke:#eb5a5a;stroke-width:4.30000019;stroke-linecap:round;stroke-linejoin:round;stroke-miterlimit:4;stroke-dasharray:none;stroke-opacity:1"
         id="path1021" />
      <path
         d="m 132.5,458.54908 q 0,-1.79167 0.95833,-3.04167 0.95834,-1.25 2.54167,-1.66667 0.45833,-0.91666 1.41667,-2.45833 0.95833,-1.58333 2.375,-3.41667 1.41667,-1.83333 3.20833,-3.66666 1.83334,-1.875 4,-3.375 2.20834,-1.54167 4.70834,-2.5 2.54166,-0.95834 5.375,-0.95834 2.41666,0 4.20833,0.58334 1.79167,0.58333 2.95833,1.625 1.16667,1.04166 1.75,2.5 0.58334,1.41666 0.58334,3.08333 0,1.41667 -0.375,2.70833 -0.58334,2.33334 -2.16667,4.08334 -1.58333,1.75 -3.75,3.08333 -2.125,1.29167 -4.66667,2.16667 -2.5,0.875 -5.04166,1.45833 -2.5,0.58333 -4.83334,0.91667 -2.33333,0.29167 -4.04166,0.45833 -0.375,0.75 -0.66667,1.91667 -0.25,1.125 -0.25,2.20833 0,2.41667 1.91667,3.75 1.91666,1.33334 5.29166,1.33334 1.95834,0 3.75,-0.41667 1.79167,-0.45833 3.375,-1.125 1.625,-0.70833 3.04167,-1.5 1.41667,-0.83333 2.58333,-1.625 1.5,-1 2.83334,-1.66667 1.375,-0.70833 2.41666,-0.70833 1.04167,0 1.33334,0.54167 0.29166,0.5 0.29166,1.08333 0,0.33333 -0.0417,0.66667 0,0.29166 -0.0417,0.5 -0.20833,1.08333 -0.83333,2.16666 -0.625,1.08334 -1.58334,1.875 -4.33333,3.41667 -8.91666,4.875 -4.54167,1.45834 -9.70834,1.45834 -1,0 -2.375,-0.125 -1.33333,-0.125 -2.79166,-0.5 -1.45834,-0.375 -2.875,-1.08334 -1.41667,-0.70833 -2.54167,-1.875 -1.08334,-1.16666 -1.79167,-2.875 -0.66667,-1.70833 -0.66667,-4.125 0,-1.95833 0.54167,-4.375 -0.54167,-0.0833 -1.04167,-0.54166 Q 132.5,459.46574 132.5,458.54908 Z m 26.08334,-11.54167 q 0.0833,-0.20833 0.0833,-0.375 0,-0.16667 0,-0.375 0,-1.125 -0.83333,-1.66667 -0.83334,-0.58333 -2,-0.58333 -1.83334,0 -3.625,0.95833 -1.75,0.95834 -3.33334,2.41667 -1.54166,1.41667 -2.75,3.08333 -1.20833,1.625 -1.875,2.95834 3,-0.25 5.5,-0.79167 2.5,-0.58333 4.33334,-1.41667 1.875,-0.875 3,-1.91666 1.16666,-1.08334 1.5,-2.29167 z M 153.75,435.71574 Z"
         style="font-style:normal;font-variant:normal;font-weight:normal;font-stretch:normal;font-size:85.33333588px;line-height:1.25;font-family:'MV Boli';-inkscape-font-specification:'MV Boli';fill:#fffdfd;fill-opacity:1;stroke:#eb5a5a;stroke-width:4.30000019;stroke-linecap:round;stroke-linejoin:round;stroke-miterlimit:4;stroke-dasharray:none;stroke-opacity:1"
         id="path1023" />
      <path
         d="m 204.83334,440.42408 q -1.45834,0 -3.125,0.70833 -1.66667,0.66667 -3.45834,1.83333 -1.79166,1.16667 -3.66666,2.66667 -1.83334,1.45833 -3.625,3.04167 -0.91667,0.79166 -1.75,1.45833 -0.83334,0.625 -1.66667,0.95833 -0.58333,0.95834 -1.25,2.54167 -0.625,1.54167 -1.25,3.41667 -0.625,1.83333 -1.20833,3.79167 -0.54167,1.91666 -0.91667,3.58333 -0.20833,0.875 -0.33333,1.70833 -0.125,0.83334 -0.29167,1.79167 -0.16667,0.91667 -0.41667,2 -0.20833,1.08333 -0.54166,2.41667 -0.20834,0.79166 -0.66667,1.29166 -0.45833,0.45834 -0.95833,0.70834 -0.5,0.25 -0.95834,0.29166 -0.45833,0.0833 -0.70833,0.0833 -1.58333,0 -2.58333,-0.75 -1,-0.75 -1,-2.91667 0,-0.58333 0.0417,-1.20833 0.0417,-0.66667 0.25,-1.45834 0.91667,-3.95833 1.75,-7.125 0.875,-3.16667 1.75,-5.875 0.875,-2.70833 1.75,-5.08333 0.91667,-2.41667 1.83334,-4.83334 0.95833,-2.45833 1.95833,-5.04166 1.04167,-2.625 2.20833,-5.79167 0.25,-0.70833 1.29167,-1.16667 1.08333,-0.5 2.29167,-0.5 1.58333,0 2.58333,0.70834 1.04167,0.70833 1.04167,2.04166 0,0.125 -0.0833,0.45834 -0.0833,0.33333 -0.25,0.70833 l -1.83333,4.33333 q 1.75,-1.375 3.625,-2.75 1.91667,-1.375 3.91667,-2.45833 2,-1.125 4,-1.79167 2.04166,-0.70833 4,-0.70833 4,0 6.25,2.16667 2.25,2.125 2.25,6.625 0,2.58333 -0.91667,5.875 -0.875,3.29166 -2.25,7.08333 -1.33333,3.75 -2.91667,7.91667 -1.54166,4.125 -2.875,8.41667 -0.375,1.16666 -0.79166,1.95833 -0.375,0.79167 -0.91667,1.25 -0.54167,0.5 -1.29167,0.70833 -0.70833,0.20834 -1.75,0.20834 -1.625,0 -2.25,-0.625 -0.625,-0.58334 -0.625,-1.91667 0,-1.16667 0.33334,-2.83333 0.375,-1.70834 1,-3.70834 0.66666,-2.04166 1.5,-4.33333 0.875,-2.29167 1.875,-4.66667 0.79166,-1.91667 1.54166,-3.83333 0.79167,-1.91667 1.375,-3.70834 0.625,-1.79166 1,-3.41666 0.375,-1.625 0.375,-3 0,-1.29167 -0.58333,-2.25 -0.54167,-1 -2.08333,-1 z"
         style="font-style:normal;font-variant:normal;font-weight:normal;font-stretch:normal;font-size:85.33333588px;line-height:1.25;font-family:'MV Boli';-inkscape-font-specification:'MV Boli';fill:#fffdfd;fill-opacity:1;stroke:#eb5a5a;stroke-width:4.30000019;stroke-linecap:round;stroke-linejoin:round;stroke-miterlimit:4;stroke-dasharray:none;stroke-opacity:1"
         id="path1025" />
      <path
         d="m 252,440.42408 q -1.45833,0 -3.125,0.70833 -1.66667,0.66667 -3.45833,1.83333 -1.79167,1.16667 -3.66667,2.66667 -1.83333,1.45833 -3.625,3.04167 -0.91667,0.79166 -1.75,1.45833 -0.83333,0.625 -1.66667,0.95833 -0.58333,0.95834 -1.25,2.54167 -0.625,1.54167 -1.25,3.41667 -0.625,1.83333 -1.20833,3.79167 -0.54167,1.91666 -0.91667,3.58333 -0.20833,0.875 -0.33333,1.70833 -0.125,0.83334 -0.29167,1.79167 -0.16666,0.91667 -0.41666,2 -0.20834,1.08333 -0.54167,2.41667 -0.20833,0.79166 -0.66667,1.29166 -0.45833,0.45834 -0.95833,0.70834 -0.5,0.25 -0.95833,0.29166 -0.45834,0.0833 -0.70834,0.0833 -1.58333,0 -2.58333,-0.75 -1,-0.75 -1,-2.91667 0,-0.58333 0.0417,-1.20833 0.0417,-0.66667 0.25,-1.45834 0.91666,-3.95833 1.75,-7.125 0.875,-3.16667 1.75,-5.875 0.875,-2.70833 1.75,-5.08333 0.91666,-2.41667 1.83333,-4.83334 0.95833,-2.45833 1.95833,-5.04166 1.04167,-2.625 2.20834,-5.79167 0.25,-0.70833 1.29166,-1.16667 1.08334,-0.5 2.29167,-0.5 1.58333,0 2.58333,0.70834 1.04167,0.70833 1.04167,2.04166 0,0.125 -0.0833,0.45834 -0.0833,0.33333 -0.25,0.70833 l -1.83334,4.33333 q 1.75,-1.375 3.625,-2.75 1.91667,-1.375 3.91667,-2.45833 2,-1.125 4,-1.79167 2.04167,-0.70833 4,-0.70833 4,0 6.25,2.16667 2.25,2.125 2.25,6.625 0,2.58333 -0.91667,5.875 -0.875,3.29166 -2.25,7.08333 -1.33333,3.75 -2.91666,7.91667 -1.54167,4.125 -2.875,8.41667 -0.375,1.16666 -0.79167,1.95833 -0.375,0.79167 -0.91667,1.25 -0.54166,0.5 -1.29166,0.70833 -0.70834,0.20834 -1.75,0.20834 -1.625,0 -2.25,-0.625 -0.625,-0.58334 -0.625,-1.91667 0,-1.16667 0.33333,-2.83333 0.375,-1.70834 1,-3.70834 0.66667,-2.04166 1.5,-4.33333 0.875,-2.29167 1.875,-4.66667 0.79167,-1.91667 1.54167,-3.83333 0.79166,-1.91667 1.375,-3.70834 0.625,-1.79166 1,-3.41666 0.375,-1.625 0.375,-3 0,-1.29167 -0.58334,-2.25 -0.54166,-1 -2.08333,-1 z"
         style="font-style:normal;font-variant:normal;font-weight:normal;font-stretch:normal;font-size:85.33333588px;line-height:1.25;font-family:'MV Boli';-inkscape-font-specification:'MV Boli';fill:#fffdfd;fill-opacity:1;stroke:#eb5a5a;stroke-width:4.30000019;stroke-linecap:round;stroke-linejoin:round;stroke-miterlimit:4;stroke-dasharray:none;stroke-opacity:1"
         id="path1027" />
      <path
         d="m 269.00001,458.54908 q 0,-1.79167 0.95833,-3.04167 0.95833,-1.25 2.54167,-1.66667 0.45833,-0.91666 1.41666,-2.45833 0.95834,-1.58333 2.375,-3.41667 1.41667,-1.83333 3.20834,-3.66666 1.83333,-1.875 4,-3.375 2.20833,-1.54167 4.70833,-2.5 2.54167,-0.95834 5.375,-0.95834 2.41667,0 4.20833,0.58334 1.79167,0.58333 2.95834,1.625 1.16666,1.04166 1.75,2.5 0.58333,1.41666 0.58333,3.08333 0,1.41667 -0.375,2.70833 -0.58333,2.33334 -2.16667,4.08334 -1.58333,1.75 -3.75,3.08333 -2.125,1.29167 -4.66666,2.16667 -2.5,0.875 -5.04167,1.45833 -2.5,0.58333 -4.83333,0.91667 -2.33334,0.29167 -4.04167,0.45833 -0.375,0.75 -0.66667,1.91667 -0.25,1.125 -0.25,2.20833 0,2.41667 1.91667,3.75 1.91667,1.33334 5.29167,1.33334 1.95833,0 3.75,-0.41667 1.79166,-0.45833 3.375,-1.125 1.625,-0.70833 3.04166,-1.5 1.41667,-0.83333 2.58334,-1.625 1.5,-1 2.83333,-1.66667 1.375,-0.70833 2.41667,-0.70833 1.04166,0 1.33333,0.54167 0.29167,0.5 0.29167,1.08333 0,0.33333 -0.0417,0.66667 0,0.29166 -0.0417,0.5 -0.20833,1.08333 -0.83333,2.16666 -0.625,1.08334 -1.58333,1.875 -4.33334,3.41667 -8.91667,4.875 -4.54167,1.45834 -9.70833,1.45834 -1,0 -2.375,-0.125 -1.33334,-0.125 -2.79167,-0.5 -1.45833,-0.375 -2.875,-1.08334 -1.41667,-0.70833 -2.54167,-1.875 -1.08333,-1.16666 -1.79166,-2.875 -0.66667,-1.70833 -0.66667,-4.125 0,-1.95833 0.54167,-4.375 -0.54167,-0.0833 -1.04167,-0.54166 -0.45833,-0.50001 -0.45833,-1.41667 z m 26.08333,-11.54167 q 0.0833,-0.20833 0.0833,-0.375 0,-0.16667 0,-0.375 0,-1.125 -0.83333,-1.66667 -0.83333,-0.58333 -2,-0.58333 -1.83333,0 -3.625,0.95833 -1.75,0.95834 -3.33333,2.41667 -1.54167,1.41667 -2.75,3.08333 -1.20834,1.625 -1.875,2.95834 3,-0.25 5.5,-0.79167 2.5,-0.58333 4.33333,-1.41667 1.875,-0.875 3,-1.91666 1.16667,-1.08334 1.5,-2.29167 z m -4.83333,-11.29167 z"
         style="font-style:normal;font-variant:normal;font-weight:normal;font-stretch:normal;font-size:85.33333588px;line-height:1.25;font-family:'MV Boli';-inkscape-font-specification:'MV Boli';fill:#fffdfd;fill-opacity:1;stroke:#eb5a5a;stroke-width:4.30000019;stroke-linecap:round;stroke-linejoin:round;stroke-miterlimit:4;stroke-dasharray:none;stroke-opacity:1"
         id="path1029" />
    </g>
  </g>
</svg>
